<svg width="17" height="16" viewBox="0 0 17 16" fill="none" xmlns="http://www.w3.org/2000/svg">
<path d="M15.7374 6.17191L14.5895 4.96436C14.4489 4.83019 13.3713 3.65618 13.2776 3.55556H13.2542C13.2307 3.52201 13.2307 3.45493 13.2073 3.42138C12.2702 1.27463 10.5366 0 8.56871 0C6.60082 0 4.8672 1.27463 3.93011 3.42138C3.90669 3.45493 3.88326 3.52201 3.88326 3.55556C3.88326 3.55556 3.88326 3.55556 3.85983 3.55556C3.78955 3.65618 2.7119 4.79665 2.54791 4.96436L1.39997 6.17191C0.603446 6.87631 0.345746 8.31866 0.790864 9.49266C1.37654 11.0021 2.33706 12.847 3.485 12.8805C3.55528 12.8805 3.60213 12.8805 3.67241 12.847C3.81298 12.7799 3.95354 12.6457 4.02382 12.4444C4.04725 12.4109 4.04725 12.3774 4.07068 12.3438C5.07805 14.8931 7.51448 16 8.56871 16C9.85721 16 12.0594 14.8595 13.0667 12.3438C13.0902 12.3774 13.0902 12.4109 13.1136 12.4444C13.1839 12.6457 13.3244 12.7799 13.465 12.847C13.5353 12.8805 13.5821 12.8805 13.6524 12.8805C14.8004 12.847 15.7374 11.0356 16.3466 9.49266C16.8151 8.3522 16.534 6.87631 15.7374 6.17191Z" fill="#F8F8F8"/>
<path d="M15.7374 6.17191L14.5895 4.96436C14.4489 4.83019 13.3713 3.65618 13.2776 3.55556H13.2542C13.2307 3.52201 13.2307 3.45493 13.2073 3.42138C12.2702 1.27463 10.5366 0 8.56871 0C6.60082 0 4.8672 1.27463 3.93011 3.42138C3.90669 3.45493 3.88326 3.52201 3.88326 3.55556C3.88326 3.55556 3.88326 3.55556 3.85983 3.55556C3.78955 3.65618 2.7119 4.79665 2.54791 4.96436L1.39997 6.17191C0.603446 6.87631 0.345746 8.31866 0.790864 9.49266C1.37654 11.0021 2.33706 12.847 3.485 12.8805C3.55528 12.8805 3.60213 12.8805 3.67241 12.847C3.81298 12.7799 3.95354 12.6457 4.02382 12.4444C4.04725 12.4109 4.04725 12.3774 4.07068 12.3438C5.07805 14.8931 7.51448 16 8.56871 16C9.85721 16 12.0594 14.8595 13.0667 12.3438C13.0902 12.3774 13.0902 12.4109 13.1136 12.4444C13.1839 12.6457 13.3244 12.7799 13.465 12.847C13.5353 12.8805 13.5821 12.8805 13.6524 12.8805C14.8004 12.847 15.7374 11.0356 16.3466 9.49266C16.8151 8.3522 16.534 6.87631 15.7374 6.17191ZM16.042 9.25786C15.4797 10.6667 14.6364 12.3438 13.6524 12.3774C13.629 12.3774 13.6056 12.3774 13.5821 12.3438C13.5119 12.3103 13.465 12.2432 13.4181 12.1761C13.3713 12.0419 13.3244 11.8742 13.2542 11.7065C13.1839 11.4382 13.137 11.1027 13.0902 10.7002C13.0199 9.86163 13.0667 8.62054 13.3713 6.80922C13.3947 6.67505 13.4181 6.57442 13.4416 6.44025C13.465 6.33962 13.465 6.23899 13.4884 6.13836C13.5119 6.03774 13.4884 5.93711 13.4416 5.90356C13.4181 5.87002 13.4181 5.87002 13.3947 5.87002H13.3713C13.2776 5.83648 13.1839 5.90356 13.1604 6.03774C13.1136 6.27254 13.0667 6.50734 13.0433 6.7086C12.6216 9.2914 12.6919 10.7338 12.8793 11.6394C12.8559 11.7065 12.8325 11.7736 12.809 11.8742C11.9657 14.2893 9.78692 15.4298 8.56871 15.4298C7.56134 15.4298 5.19519 14.3564 4.32838 11.8407C4.30495 11.7736 4.28152 11.7065 4.2581 11.6394C4.44551 10.7338 4.5158 9.2914 4.0941 6.67505C4.04725 6.44025 4.02382 6.23899 3.97697 6.00419C3.95354 5.87002 3.85983 5.80293 3.76612 5.83648C3.76612 5.83648 3.76612 5.83648 3.7427 5.83648C3.71927 5.83648 3.69584 5.87002 3.69584 5.87002C3.64899 5.93711 3.62556 6.03774 3.62556 6.13836C3.64899 6.23899 3.67241 6.33962 3.67241 6.44025C3.69584 6.57442 3.71927 6.67505 3.7427 6.80922C4.04725 8.72117 4.0941 9.96226 4.02382 10.8008C4.0004 11.1698 3.93011 11.4717 3.85983 11.7065C3.81298 11.8742 3.76612 12.0084 3.71927 12.1426C3.69584 12.2432 3.62556 12.2767 3.55528 12.3103C3.53185 12.3103 3.485 12.3438 3.485 12.3438C2.50105 12.3103 1.65767 10.6331 1.09542 9.22432C0.744009 8.31866 0.954855 7.14465 1.58739 6.57442L2.73532 5.36688C2.82903 5.26625 3.2273 4.86373 3.55528 4.49476C3.64899 4.39413 3.7427 4.2935 3.81298 4.22642L4.18781 3.8239C4.21124 3.79036 4.23467 3.72327 4.23467 3.68973C5.10148 1.71069 6.71795 0.503145 8.56871 0.503145C10.4195 0.503145 12.0125 1.67715 12.9027 3.68973C12.9262 3.72327 12.9262 3.79036 12.9496 3.8239L13.2542 4.15933C13.3479 4.25996 13.465 4.39413 13.5821 4.5283C13.9101 4.89727 14.3084 5.29979 14.3787 5.40042L14.5661 5.60168L15.5266 6.64151C16.1826 7.1782 16.4168 8.31866 16.042 9.25786Z" fill="#3C3C3B"/>
<path d="M5.42943 10.6331C5.83052 10.6331 6.15567 10.4529 6.15567 10.2306C6.15567 10.0083 5.83052 9.82809 5.42943 9.82809C5.02834 9.82809 4.70319 10.0083 4.70319 10.2306C4.70319 10.4529 5.02834 10.6331 5.42943 10.6331Z" fill="#ED8CB9"/>
<path d="M11.7314 10.6331C12.1325 10.6331 12.4576 10.4529 12.4576 10.2306C12.4576 10.0083 12.1325 9.82809 11.7314 9.82809C11.3303 9.82809 11.0051 10.0083 11.0051 10.2306C11.0051 10.4529 11.3303 10.6331 11.7314 10.6331Z" fill="#ED8CB9"/>
<path d="M10.1149 8.98951C10.0915 8.98951 10.068 8.98952 10.068 8.95597C8.49841 7.413 7.11621 8.92243 7.09278 8.95597C7.04593 8.98952 6.99907 8.98952 6.95222 8.92243C6.92879 8.85534 6.92879 8.78826 6.97564 8.72117C6.99907 8.68763 8.47499 7.04402 10.1617 8.72117C10.2086 8.75471 10.2086 8.85534 10.1852 8.92243C10.1852 8.95597 10.1383 8.98951 10.1149 8.98951Z" fill="#575756"/>
<path d="M9.64638 10.7002C9.15441 10.7002 8.73271 10.2977 8.56872 10.0964C8.35788 10.3312 7.70192 11.0021 6.9991 10.5325C6.95224 10.499 6.92882 10.4319 6.95224 10.3648C6.97567 10.2977 7.02253 10.2642 7.06938 10.2977C7.7722 10.7673 8.49844 9.82809 8.49844 9.82809L8.56872 9.76101L8.63901 9.82809C8.63901 9.82809 9.36525 10.7673 10.0681 10.2977C10.1149 10.2642 10.1618 10.2977 10.1852 10.3648C10.2086 10.4319 10.1852 10.499 10.1383 10.5325C9.97436 10.6667 9.81037 10.7002 9.64638 10.7002Z" fill="#575756"/>
<path d="M8.56872 12.0084C7.58477 12.0084 7.28022 10.5996 7.28022 10.5996C7.25679 10.5325 7.30365 10.4654 7.3505 10.4319C7.39735 10.3983 7.44421 10.4654 7.46764 10.5325C7.46764 10.566 7.72534 11.7736 8.56872 11.7736C9.4121 11.7736 9.6698 10.566 9.6698 10.5325C9.69322 10.4654 9.74008 10.4319 9.78693 10.4319C9.83379 10.4654 9.85721 10.5325 9.85721 10.5996C9.85721 10.5996 9.55266 12.0084 8.56872 12.0084Z" fill="#575756"/>
<path d="M11.1223 8.1174C11.5104 8.1174 11.8251 7.66687 11.8251 7.11111C11.8251 6.55535 11.5104 6.10482 11.1223 6.10482C10.7341 6.10482 10.4194 6.55535 10.4194 7.11111C10.4194 7.66687 10.7341 8.1174 11.1223 8.1174Z" fill="#3C3C3B"/>
<path d="M10.9114 7.31238C10.888 7.27883 10.8646 7.27883 10.8412 7.27883C10.8412 7.27883 10.8412 7.27883 10.8646 7.24529C10.9115 7.14466 10.888 6.97695 10.8177 6.9434C10.7475 6.87632 10.6303 6.90986 10.6069 7.01049C10.56 7.11112 10.5835 7.27883 10.6538 7.31238C10.7006 7.34592 10.724 7.34592 10.7709 7.34592C10.7475 7.413 10.7709 7.51363 10.8177 7.54718C10.8646 7.58072 10.9349 7.58072 10.9817 7.48009C10.9817 7.44655 10.9583 7.34592 10.9114 7.31238Z" fill="#FAFAFA"/>
<path d="M6.03857 8.1174C6.42673 8.1174 6.74139 7.66687 6.74139 7.11111C6.74139 6.55535 6.42673 6.10482 6.03857 6.10482C5.65042 6.10482 5.33575 6.55535 5.33575 7.11111C5.33575 7.66687 5.65042 8.1174 6.03857 8.1174Z" fill="#3C3C3B"/>
<path d="M5.82771 7.31238C5.80428 7.27883 5.78086 7.27883 5.75743 7.27883C5.75743 7.27883 5.75743 7.27883 5.78086 7.24529C5.82771 7.14466 5.80428 6.97695 5.734 6.9434C5.66372 6.87632 5.54658 6.90986 5.52316 7.01049C5.4763 7.11112 5.49973 7.27883 5.57001 7.31238C5.61686 7.34592 5.64029 7.34592 5.68715 7.34592C5.66372 7.413 5.68715 7.51363 5.734 7.54718C5.78086 7.58072 5.85114 7.58072 5.89799 7.48009C5.94485 7.37946 5.87456 7.34592 5.82771 7.31238Z" fill="#FAFAFA"/>
<path d="M8.56868 9.92872C9.00859 9.92872 9.36521 9.64338 9.36521 9.2914C9.36521 8.93942 9.00859 8.65408 8.56868 8.65408C8.12877 8.65408 7.77216 8.93942 7.77216 9.2914C7.77216 9.64338 8.12877 9.92872 8.56868 9.92872Z" fill="black"/>
</svg>
